{
    "asset" : {
        "generator" : "Khronos glTF Blender I/O v0.9.36",
        "version" : "2.0"
    },
    "scene" : 0,
    "scenes" : [
        {
            "name" : "Scene",
            "nodes" : [
                0
            ]
        }
    ],
    "nodes" : [
        {
            "mesh" : 0,
            "name" : "vol._1",
            "rotation" : [
                1,
                0,
                0,
                -1.3435885648505064e-07
            ],
            "scale" : [
                1.4664264917373657,
                1.4664266109466553,
                1.4664266109466553
            ],
            "translation" : [
                -3.527035005390644e-05,
                -0.00037269294261932373,
                -0.0003480448795016855
            ]
        }
    ],
    "materials" : [
        {
            "doubleSided" : true,
            "emissiveFactor" : [
                0,
                0,
                0
            ],
            "name" : "Phone",
            "pbrMetallicRoughness" : {
                "baseColorFactor" : [
                    0.012216928415000439,
                    0.012216928415000439,
                    0.012216928415000439,
                    1
                ],
                "metallicFactor" : 0,
                "roughnessFactor" : 0.7333333492279053
            }
        },
        {
            "doubleSided" : true,
            "name" : "Green",
            "pbrMetallicRoughness" : {}
        },
        {
            "doubleSided" : true,
            "emissiveFactor" : [
                0,
                0,
                0
            ],
            "name" : "Cam",
            "pbrMetallicRoughness" : {
                "baseColorFactor" : [
                    0.06680658459663391,
                    0.06680658459663391,
                    0.06680658459663391,
                    1
                ],
                "metallicFactor" : 0,
                "roughnessFactor" : 0.5
            }
        },
        {
            "doubleSided" : true,
            "emissiveFactor" : [
                0,
                0,
                0
            ],
            "name" : "Material.001",
            "pbrMetallicRoughness" : {
                "baseColorFactor" : [
                    0.10653547197580338,
                    0.10653547197580338,
                    0.10653547197580338,
                    1
                ],
                "metallicFactor" : 0,
                "roughnessFactor" : 0.5
            }
        }
    ],
    "meshes" : [
        {
            "name" : "vol._1",
            "primitives" : [
                {
                    "attributes" : {
                        "POSITION" : 0,
                        "NORMAL" : 1,
                        "TEXCOORD_0" : 2
                    },
                    "indices" : 3,
                    "material" : 0
                },
                {
                    "attributes" : {
                        "POSITION" : 4,
                        "NORMAL" : 5,
                        "TEXCOORD_0" : 6
                    },
                    "indices" : 7,
                    "material" : 1
                },
                {
                    "attributes" : {
                        "POSITION" : 8,
                        "NORMAL" : 9,
                        "TEXCOORD_0" : 10
                    },
                    "indices" : 11,
                    "material" : 2
                },
                {
                    "attributes" : {
                        "POSITION" : 12,
                        "NORMAL" : 13,
                        "TEXCOORD_0" : 14
                    },
                    "indices" : 15,
                    "material" : 3
                }
            ]
        }
    ],
    "accessors" : [
        {
            "bufferView" : 0,
            "componentType" : 5126,
            "count" : 17871,
            "max" : [
                0.07134329527616501,
                0.15937396883964539,
                0.007397929206490517
            ],
            "min" : [
                -0.06926269829273224,
                -0.14862103760242462,
                -0.007149070501327515
            ],
            "type" : "VEC3"
        },
        {
            "bufferView" : 1,
            "componentType" : 5126,
            "count" : 17871,
            "type" : "VEC3"
        },
        {
            "bufferView" : 2,
            "componentType" : 5126,
            "count" : 17871,
            "type" : "VEC2"
        },
        {
            "bufferView" : 3,
            "componentType" : 5123,
            "count" : 56310,
            "type" : "SCALAR"
        },
        {
            "bufferView" : 4,
            "componentType" : 5126,
            "count" : 124,
            "max" : [
                0.06665629893541336,
                0.15468697249889374,
                -0.007149070501327515
            ],
            "min" : [
                -0.06457570195198059,
                -0.14393402636051178,
                -0.007149070501327515
            ],
            "type" : "VEC3"
        },
        {
            "bufferView" : 5,
            "componentType" : 5126,
            "count" : 124,
            "type" : "VEC3"
        },
        {
            "bufferView" : 6,
            "componentType" : 5126,
            "count" : 124,
            "type" : "VEC2"
        },
        {
            "bufferView" : 7,
            "componentType" : 5123,
            "count" : 318,
            "type" : "SCALAR"
        },
        {
            "bufferView" : 8,
            "componentType" : 5126,
            "count" : 68,
            "max" : [
                -0.01681169867515564,
                -0.0710800290107727,
                0.007397929206490517
            ],
            "min" : [
                -0.05350170284509659,
                -0.13589103519916534,
                0.007390929386019707
            ],
            "type" : "VEC3"
        },
        {
            "bufferView" : 9,
            "componentType" : 5126,
            "count" : 68,
            "type" : "VEC3"
        },
        {
            "bufferView" : 10,
            "componentType" : 5126,
            "count" : 68,
            "type" : "VEC2"
        },
        {
            "bufferView" : 11,
            "componentType" : 5123,
            "count" : 114,
            "type" : "SCALAR"
        },
        {
            "bufferView" : 12,
            "componentType" : 5126,
            "count" : 304,
            "max" : [
                -0.06902869790792465,
                -0.01903802528977394,
                0.00035792915150523186
            ],
            "min" : [
                -0.07019670307636261,
                -0.092351034283638,
                -0.0022440708708018064
            ],
            "type" : "VEC3"
        },
        {
            "bufferView" : 13,
            "componentType" : 5126,
            "count" : 304,
            "type" : "VEC3"
        },
        {
            "bufferView" : 14,
            "componentType" : 5126,
            "count" : 304,
            "type" : "VEC2"
        },
        {
            "bufferView" : 15,
            "componentType" : 5123,
            "count" : 1320,
            "type" : "SCALAR"
        }
    ],
    "bufferViews" : [
        {
            "buffer" : 0,
            "byteLength" : 214452,
            "byteOffset" : 0
        },
        {
            "buffer" : 0,
            "byteLength" : 214452,
            "byteOffset" : 214452
        },
        {
            "buffer" : 0,
            "byteLength" : 142968,
            "byteOffset" : 428904
        },
        {
            "buffer" : 0,
            "byteLength" : 112620,
            "byteOffset" : 571872
        },
        {
            "buffer" : 0,
            "byteLength" : 1488,
            "byteOffset" : 684492
        },
        {
            "buffer" : 0,
            "byteLength" : 1488,
            "byteOffset" : 685980
        },
        {
            "buffer" : 0,
            "byteLength" : 992,
            "byteOffset" : 687468
        },
        {
            "buffer" : 0,
            "byteLength" : 636,
            "byteOffset" : 688460
        },
        {
            "buffer" : 0,
            "byteLength" : 816,
            "byteOffset" : 689096
        },
        {
            "buffer" : 0,
            "byteLength" : 816,
            "byteOffset" : 689912
        },
        {
            "buffer" : 0,
            "byteLength" : 544,
            "byteOffset" : 690728
        },
        {
            "buffer" : 0,
            "byteLength" : 228,
            "byteOffset" : 691272
        },
        {
            "buffer" : 0,
            "byteLength" : 3648,
            "byteOffset" : 691500
        },
        {
            "buffer" : 0,
            "byteLength" : 3648,
            "byteOffset" : 695148
        },
        {
            "buffer" : 0,
            "byteLength" : 2432,
            "byteOffset" : 698796
        },
        {
            "buffer" : 0,
            "byteLength" : 2640,
            "byteOffset" : 701228
        }
    ],
    "buffers" : [
        {
            "byteLength" : 703868,
            "uri" : "data:application/octet-stream;base64,"
        }
    ]
}
